<svg xmlns="http://www.w3.org/2000/svg" width="64" height="64" viewBox="0 0 64 64" fill="none">
  <rect width="64" height="64" rx="12" fill="#8B5CF6"/>
  <path d="M32 16C23.163 16 16 23.163 16 32C16 40.837 23.163 48 32 48C40.837 48 48 40.837 48 32C48 23.163 40.837 16 32 16ZM32 44C25.373 44 20 38.627 20 32C20 25.373 25.373 20 32 20C38.627 20 44 25.373 44 32C44 38.627 38.627 44 32 44Z" fill="white"/>
  <path d="M32 24C28.686 24 26 26.686 26 30C26 33.314 28.686 36 32 36C35.314 36 38 33.314 38 30C38 26.686 35.314 24 32 24ZM32 32C30.895 32 30 31.105 30 30C30 28.895 30.895 28 32 28C33.105 28 34 28.895 34 30C34 31.105 33.105 32 32 32Z" fill="white"/>
  <path d="M38 38L32 44L26 38" stroke="white" stroke-width="3" stroke-linecap="round" stroke-linejoin="round"/>
</svg>
